# xmcd
#
# Track frame offsets: 
#        150
#        18043
#        31872
#        43644
#        60483
#        70958
#        83174
#        102194
#        118993
#        130602
#        144363
#        157033
#
# Disc length: 2264 seconds
#
# Revision: 0
# Processed by: cddbd v1.5.2PL0 Copyright (c) Steve Scherf et al.
# Submitted via: ExactAudioCopyFreeDBPlugin 1.0
#
DISCID=9608d60c
DTITLE=Southern Image - Restoration
DYEAR=1900
DGENRE=Gospel
TTITLE0=Home
TTITLE1=Drink From The Well
TTITLE2=Wonderful Change
TTITLE3=In The Garden
TTITLE4=Canaan Road
TTITLE5=When I Go Sailin'
TTITLE6=When The Lord Loves To Move
TTITLE7=What A Meeting
TTITLE8=Flight To Glory
TTITLE9=Winging My Way
TTITLE10=Rise Up
TTITLE11=Land Of Living
EXTD=
EXTT0=
EXTT1=
EXTT2=
EXTT3=
EXTT4=
EXTT5=
EXTT6=
EXTT7=
EXTT8=
EXTT9=
EXTT10=
EXTT11=
PLAYORDER=
